<?xml version="1.0" encoding="UTF-8" standalone="no"?>
<svg
   xmlns:dc="http://purl.org/dc/elements/1.1/"
   xmlns:cc="http://creativecommons.org/ns#"
   xmlns:rdf="http://www.w3.org/1999/02/22-rdf-syntax-ns#"
   xmlns:svg="http://www.w3.org/2000/svg"
   xmlns="http://www.w3.org/2000/svg"
   viewBox="0 0 604.71997 340.16"
   height="340.16"
   width="604.71997"
   xml:space="preserve"
   id="svg2"
   version="1.1"><metadata
     id="metadata8"><rdf:RDF><cc:Work
         rdf:about=""><dc:format>image/svg+xml</dc:format><dc:type
           rdf:resource="http://purl.org/dc/dcmitype/StillImage" /></cc:Work></rdf:RDF></metadata><defs
     id="defs6" /><g
     transform="matrix(1.3333333,0,0,-1.3333333,0,340.16)"
     id="g10"><g
       transform="translate(72,183.118)"
       id="g12"><g
         id="g14"><path
           id="path16"
           style="fill:none;fill-opacity:1;fill-rule:nonzero;stroke:none"
           d="M -72,-183.118 H 381.543 V 72 H -72 Z" /></g><g
         transform="translate(154.772,-163.819)"
         id="g18"><g
           id="g20"><g
             id="g22"><g
               id="g24" /><g
               id="g26" /><g
               id="g28" /><g
               id="g30" /><g
               id="g32"><path
                 id="path34"
                 style="fill:#d9e3ef;fill-opacity:1;fill-rule:nonzero;stroke:none"
                 d="m -224.93051,198.85199 c 1.99255,0 2.98883,1.99255 4.98138,1.99255 1.45446,0 2.71659,-0.99627 3.98511,-1.99255 1.26851,-0.99628 2.53064,-1.99255 3.98511,-1.99255 1.45445,0 2.71658,0.99627 3.98511,1.99255 1.2685,0.99628 2.53063,1.99255 3.9851,1.99255 1.45446,0 2.71659,-0.99627 3.98511,-1.99255 1.26851,-0.99628 2.53064,-1.99255 3.98511,-1.99255 1.45445,0 2.71658,0.99627 3.9851,1.99255 1.26851,0.99628 2.53064,1.99255 3.98511,1.99255 1.45445,0 2.71659,-0.99627 3.98511,-1.99255 1.26851,-0.99628 2.53064,-1.99255 3.98511,-1.99255 1.45445,0 2.71658,0.99627 3.9851,1.99255 1.26851,0.99628 2.53065,1.99255 3.98511,1.99255 1.45445,0 2.71659,-0.99627 3.98511,-1.99255 1.26851,-0.99628 2.53064,-1.99255 3.98511,-1.99255 1.45445,0 2.71658,0.99627 3.9851,1.99255 1.26852,0.99628 2.53064,1.99255 3.98511,1.99255 1.45445,0 2.71658,-0.99627 3.98511,-1.99255 1.26851,-0.99628 2.53064,-1.99255 3.9851,-1.99255 1.45446,0 2.71659,0.99627 3.98511,1.99255 1.26851,0.99628 2.53064,1.99255 3.98511,1.99255 1.45445,0 2.71658,-0.99627 3.98511,-1.99255 1.26851,-0.99628 2.53064,-1.99255 3.98511,-1.99255 1.45445,0 2.71658,0.99627 3.9851,1.99255 1.26851,0.99628 2.53064,1.99255 3.98511,1.99255 1.45445,0 2.71658,-0.99627 3.98511,-1.99255 1.26851,-0.99628 2.53064,-1.99255 3.98511,-1.99255 1.45445,0 2.71658,0.99627 3.9851,1.99255 1.26851,0.99628 2.53064,1.99255 3.98511,1.99255 1.45445,0 2.71658,-0.99627 3.98511,-1.99255 1.26851,-0.99628 2.53064,-1.99255 3.98511,-1.99255 1.45445,0 2.71658,0.99627 3.9851,1.99255 1.26851,0.99628 2.53064,1.99255 3.98511,1.99255 1.45445,0 2.71659,-0.99627 3.98511,-1.99255 1.26851,-0.99628 2.53064,-1.99255 3.98511,-1.99255 1.45445,0 2.71658,0.99627 3.9851,1.99255 1.26851,0.99628 2.53064,1.99255 3.98511,1.99255 1.45446,0 2.71658,-0.99627 3.98511,-1.99255 1.26851,-0.99628 2.53064,-1.99255 3.9851,-1.99255 1.45445,0 2.71659,0.99627 3.98511,1.99255 1.26851,0.99628 2.53064,1.99255 3.98511,1.99255 1.45445,0 2.71658,-0.99627 3.98511,-1.99255 1.26851,-0.99628 2.53064,-1.99255 3.9851,-1.99255 1.45446,0 2.71659,0.99627 3.98511,1.99255 1.26851,0.99628 2.53064,1.99255 3.98511,1.99255 1.45445,0 2.71658,-0.99627 3.9851,-1.99255 1.26852,-0.99628 2.53065,-1.99255 3.98511,-1.99255 1.45446,0 2.71659,0.99627 3.98511,1.99255 1.26851,0.99628 2.53064,1.99255 3.98511,1.99255 1.45445,0 2.71658,-0.99627 3.98511,-1.99255 1.26851,-0.99628 2.53064,-1.99255 3.9851,-1.99255 1.45446,0 2.71659,0.99627 3.98511,1.99255 1.26851,0.99628 2.53064,1.99255 3.98511,1.99255 1.45445,0 2.71658,-0.99627 3.98511,-1.99255 1.26851,-0.99628 2.53063,-1.99255 3.9851,-1.99255 1.45446,0 2.71659,0.99627 3.98511,1.99255 1.26849,0.99628 2.53062,1.99255 3.98509,1.99255 1.45446,0 2.71659,-0.99627 3.98511,-1.99255 1.26851,-0.99628 2.53064,-1.99255 3.98511,-1.99255 1.45445,0 2.71658,0.99627 3.98511,1.99255 1.2685,0.99628 2.53064,1.99255 3.9851,1.99255 1.45446,0 2.71659,-0.99627 3.98511,-1.99255 1.26851,-0.99628 2.53064,-1.99255 3.98511,-1.99255 1.45445,0 2.71658,0.99627 3.98511,1.99255 1.2685,0.99628 2.53063,1.99255 3.9851,1.99255 1.45446,0 2.71659,-0.99627 3.98511,-1.99255 1.26851,-0.99628 2.53064,-1.99255 3.98511,-1.99255 1.45445,0 2.71658,0.99627 3.9851,1.99255 1.26851,0.99628 2.53065,1.99255 3.98511,1.99255 1.45445,0 2.71659,-0.99627 3.98511,-1.99255 1.26851,-0.99628 2.53064,-1.99255 3.98511,-1.99255 1.45445,0 2.71658,0.99627 3.9851,1.99255 1.26852,0.99628 2.53064,1.99255 3.98511,1.99255 1.45445,0 2.71659,-0.99627 3.98511,-1.99255 1.26851,-0.99628 2.53064,-1.99255 3.9851,-1.99255 1.45446,0 2.71659,0.99627 3.98511,1.99255 1.26851,0.99628 2.53064,1.99255 3.98511,1.99255 1.45445,0 2.71658,-0.99627 3.98511,-1.99255 1.26851,-0.99628 2.53064,-1.99255 3.98511,-1.99255 1.45445,0 2.71658,0.99627 3.9851,1.99255 1.26851,0.99628 2.53064,1.99255 3.98511,1.99255 1.45445,0 2.71658,-0.99627 3.98511,-1.99255 1.26851,-0.99628 2.53064,-1.99255 3.98511,-1.99255 1.45445,0 2.71658,0.99627 3.9851,1.99255 1.26851,0.99628 2.53064,1.99255 3.98511,1.99255 1.45445,0 2.71658,-0.99627 3.98511,-1.99255 1.26851,-0.99628 2.53064,-1.99255 3.98511,-1.99255 1.45445,0 2.71658,0.99627 3.9851,1.99255 1.26851,0.99628 2.53064,1.99255 3.98511,1.99255 1.45445,0 2.71659,-0.99627 3.98511,-1.99255 1.26851,-0.99628 2.53064,-1.99255 3.98511,-1.99255 1.45445,0 2.71658,0.99627 3.9851,1.99255 1.26851,0.99628 2.53064,1.99255 3.98511,1.99255 1.45446,0 2.71658,-0.99627 3.98511,-1.99255 1.26851,-0.99628 2.53064,-1.99255 3.98511,-1.99255 1.45445,0 2.71658,0.99627 3.9851,1.99255 1.26851,0.99628 2.53064,1.99255 3.98511,1.99255 1.45445,0 2.71658,-0.99627 3.98511,-1.99255 1.26851,-0.99628 2.53064,-1.99255 3.9851,-1.99255 1.45446,0 2.71659,0.99627 3.98511,1.99255 1.26851,0.99628 2.53064,1.99255 3.98511,1.99255 1.45445,0 2.71658,-0.99627 3.9851,-1.99255 1.26852,-0.99628 2.53065,-1.99255 3.98511,-1.99255 1.45446,0 2.71659,0.99627 3.98511,1.99255 1.26851,0.99628 2.53064,1.99255 3.98511,1.99255 1.45445,0 2.71658,-0.99627 3.98511,-1.99255 1.26851,-0.99628 2.53064,-1.99255 3.9851,-1.99255 1.45446,0 2.71659,0.99627 3.98511,1.99255 1.26851,0.99628 2.53064,1.99255 3.98511,1.99255 1.45445,0 2.71658,-0.99627 3.98511,-1.99255 1.26851,-0.99628 2.53063,-1.99255 3.9851,-1.99255 1.99256,0 2.98883,1.99255 4.98139,1.99255 h 1.53645 V -8.14964 h -449.86102 z" /></g><g
               id="g36"><path
                 id="path38"
                 style="fill:#f4d4d4;fill-opacity:1;fill-rule:nonzero;stroke:#000000;stroke-width:0.3985;stroke-linecap:butt;stroke-linejoin:miter;stroke-miterlimit:10;stroke-dasharray:none;stroke-opacity:1"
                 d="M -195.59193,0 H 195.59193 L 167.65059,32.59865 H -167.65059 Z" /></g><g
               id="g40"><path
                 id="path42"
                 style="fill:#ebb2b2;fill-opacity:1;fill-rule:nonzero;stroke:#000000;stroke-width:0.3985;stroke-linecap:butt;stroke-linejoin:miter;stroke-miterlimit:10;stroke-dasharray:none;stroke-opacity:1"
                 d="M -167.65059,32.59865 H 167.65059 L 139.70872,65.1973 h -279.41744 z" /></g><g
               id="g44"><path
                 id="path46"
                 style="fill:#e28f90;fill-opacity:1;fill-rule:nonzero;stroke:#000000;stroke-width:0.3985;stroke-linecap:butt;stroke-linejoin:miter;stroke-miterlimit:10;stroke-dasharray:none;stroke-opacity:1"
                 d="M -139.70872,65.1973 H 139.70872 L 111.76688,97.79596 H -111.76688 Z" /></g><g
               id="g48"><path
                 id="path50"
                 style="fill:#da6d6d;fill-opacity:1;fill-rule:nonzero;stroke:#000000;stroke-width:0.3985;stroke-linecap:butt;stroke-linejoin:miter;stroke-miterlimit:10;stroke-dasharray:none;stroke-opacity:1"
                 d="M -111.76688,97.79596 H 111.76688 L 83.82553,130.3946 H -83.82553 Z" /></g><g
               id="g52"><path
                 id="path54"
                 style="fill:#d14a4b;fill-opacity:1;fill-rule:nonzero;stroke:#000000;stroke-width:0.3985;stroke-linecap:butt;stroke-linejoin:miter;stroke-miterlimit:10;stroke-dasharray:none;stroke-opacity:1"
                 d="M -83.82553,130.3946 H 83.82553 L 55.88367,162.99329 H -55.88367 Z" /></g><g
               id="g56"><path
                 id="path58"
                 style="fill:#c82829;fill-opacity:1;fill-rule:nonzero;stroke:#000000;stroke-width:0.3985;stroke-linecap:butt;stroke-linejoin:miter;stroke-miterlimit:10;stroke-dasharray:none;stroke-opacity:1"
                 d="M -55.88367,162.99329 H 55.88367 l -27.94185,32.59864 h -55.88364 z" /></g><g
               id="g60"><path
                 id="path62"
                 style="fill:#bf0607;fill-opacity:1;fill-rule:nonzero;stroke:#000000;stroke-width:0.3985;stroke-linecap:butt;stroke-linejoin:miter;stroke-miterlimit:10;stroke-dasharray:none;stroke-opacity:1"
                 d="M -27.94182,195.59193 H 27.94182 L 0,228.1906 v 0 z" /></g><g
               id="g64"><g
                 id="g66"><g
                   transform="scale(-1)"
                   id="g68"><g
                     id="g70" /><g
                     transform="rotate(180,77.386,-81.9095)"
                     id="g72"><g
                       id="g74" /><g
                       transform="translate(-29.241,11.835)"
                       id="g76"><text
                         id="text80"
                         style="font-variant:normal;font-weight:normal;font-size:10.90909958px;font-family:'Noto Sans';-inkscape-font-specification:NotoSans;writing-mode:lr-tb;fill:#000000;fill-opacity:1;fill-rule:nonzero;stroke:none"
                         transform="matrix(1,0,0,-1,154.772,-163.819)"><tspan
                           id="tspan78"
                           y="0"
                           x="0 5.9890957 12.73092 17.956379 23.192747 29.345478 36.054577 39.99276 42.807308 49.516403 52.330952">Susceptible</tspan></text>
</g><g
                       transform="translate(154.772,-163.819)"
                       id="g82" /></g></g></g></g><g
               id="g84"><g
                 id="g86"><g
                   transform="scale(-1)"
                   id="g88"><g
                     id="g90" /><g
                     transform="rotate(180,77.386,-81.9095)"
                     id="g92"><g
                       id="g94" /><g
                       transform="translate(-22.839,43.148)"
                       id="g96"><text
                         id="text100"
                         style="font-variant:normal;font-weight:normal;font-size:10.90909958px;font-family:'Noto Sans';-inkscape-font-specification:NotoSans;writing-mode:lr-tb;fill:#000000;fill-opacity:1;fill-rule:nonzero;stroke:none"
                         transform="matrix(1,0,0,-1,154.772,-163.819)"><tspan
                           id="tspan98"
                           y="0"
                           x="0 3.698185 10.440009 14.192739 20.345472 25.581839 29.520025 32.334572 38.934578">Infection</tspan></text>
</g><g
                       transform="translate(154.772,-163.819)"
                       id="g102" /></g></g></g></g><g
               id="g104"><g
                 id="g106"><g
                   transform="scale(-1)"
                   id="g108"><g
                     id="g110" /><g
                     transform="rotate(180,77.386,-81.9095)"
                     id="g112"><g
                       id="g114" /><g
                       transform="translate(-51.345,77.158)"
                       id="g116"><text
                         id="text120"
                         style="font-variant:normal;font-weight:normal;font-size:10.90909958px;font-family:'Noto Sans';-inkscape-font-specification:NotoSans;writing-mode:lr-tb;fill:#000000;fill-opacity:1;fill-rule:nonzero;stroke:none"
                         transform="matrix(1,0,0,-1,154.772,-163.819)"><tspan
                           id="tspan118"
                           y="0"
                           x="0 7.9636431 10.778191 16.003649 22.156382 28.276386 33.501846 42.480034 45.752766 50.978226 56.541866 66.741875 73.450974 77.389153 83.989159 94.189171 99.414627">Disease(symptoms)</tspan></text>
</g><g
                       transform="translate(154.772,-163.819)"
                       id="g122" /></g></g></g></g><g
               id="g124"><g
                 id="g126"><g
                   transform="scale(-1)"
                   id="g128"><g
                     id="g130" /><g
                     transform="rotate(180,77.386,-81.9095)"
                     id="g132"><g
                       id="g134" /><g
                       transform="translate(-51.26,108.374)"
                       id="g136"><text
                         id="text140"
                         style="font-variant:normal;font-weight:normal;font-size:10.90909958px;font-family:'Noto Sans';-inkscape-font-specification:NotoSans;writing-mode:lr-tb;fill:#000000;fill-opacity:1;fill-rule:nonzero;stroke:none"
                         transform="matrix(1,0,0,-1,154.772,-163.819)"><tspan
                           id="tspan138"
                           y="0"
                           x="0 6.8945513 13.636375 20.23638 26.836386 32.061844 41.040035 44.978218 54.414589 59.640049 65.792786 71.945511 80.607338 85.843704 91.963715 96.370987">Choosetoseekcare</tspan></text>
</g><g
                       transform="translate(154.772,-163.819)"
                       id="g142" /></g></g></g></g><g
               id="g144"><g
                 id="g146"><g
                   transform="scale(-1)"
                   id="g148"><g
                     id="g150" /><g
                     transform="rotate(180,77.386,-81.9095)"
                     id="g152"><g
                       id="g154" /><g
                       transform="translate(-49.241,142.23)"
                       id="g156"><text
                         id="text160"
                         style="font-variant:normal;font-weight:normal;font-size:10.90909958px;font-family:'Noto Sans';-inkscape-font-specification:NotoSans;writing-mode:lr-tb;fill:#000000;fill-opacity:1;fill-rule:nonzero;stroke:none"
                         transform="matrix(1,0,0,-1,154.772,-163.819)"><tspan
                           id="tspan158"
                           y="0"
                           x="0 5.9890957 12.698193 18.850925 24.087294 26.90184 37.101849 43.254581 52.821861 58.058231 64.658234 67.472786 70.287331 76.440063 81.67643 85.614616 91.767349">Specimencollected</tspan></text>
</g><g
                       transform="translate(154.772,-163.819)"
                       id="g162" /></g></g></g></g><g
               id="g164"><g
                 id="g166"><g
                   transform="scale(-1)"
                   id="g168"><g
                     id="g170" /><g
                     transform="rotate(180,77.386,-81.9095)"
                     id="g172"><g
                       id="g174" /><g
                       transform="translate(-30.882,173.697)"
                       id="g176"><text
                         id="text180"
                         style="font-variant:normal;font-weight:normal;font-size:10.90909958px;font-family:'Noto Sans';-inkscape-font-specification:NotoSans;writing-mode:lr-tb;fill:#000000;fill-opacity:1;fill-rule:nonzero;stroke:none"
                         transform="matrix(1,0,0,-1,154.772,-163.819)"><tspan
                           id="tspan178"
                           y="0"
                           x="0 6.6000056 13.200011 18.42547 21.240017 25.178204 27.99275 33.534573 42.512764 46.450947 52.60368 57.82914">Positivetest</tspan></text>
</g><g
                       transform="translate(154.772,-163.819)"
                       id="g182" /></g></g></g></g><g
               id="g184"><g
                 id="g186"><g
                   transform="scale(-1)"
                   id="g188"><g
                     id="g190" /><g
                     transform="rotate(180,77.386,-81.9095)"
                     id="g192"><g
                       id="g194" /><g
                       transform="translate(-23.779,207.427)"
                       id="g196"><text
                         id="text200"
                         style="font-variant:normal;font-weight:normal;font-size:10.90909958px;font-family:'Noto Sans';-inkscape-font-specification:NotoSans;writing-mode:lr-tb;fill:#000000;fill-opacity:1;fill-rule:nonzero;stroke:none"
                         transform="matrix(1,0,0,-1,154.772,-163.819)"><tspan
                           id="tspan198"
                           y="0"
                           x="0 6.78546 12.938192 19.647289 26.247295 30.752752 34.690937 40.84367">Reported</tspan></text>
</g><g
                       transform="translate(154.772,-163.819)"
                       id="g202" /></g></g></g></g><g
               id="g204"><path
                 id="path206"
                 style="fill:none;stroke:#4271ae;stroke-width:1.59404004;stroke-linecap:butt;stroke-linejoin:miter;stroke-miterlimit:10;stroke-dasharray:none;stroke-opacity:1"
                 d="m -224.93051,198.85199 c 1.99255,0 2.98883,1.99255 4.98138,1.99255 1.45446,0 2.71659,-0.99627 3.98511,-1.99255 1.26851,-0.99628 2.53064,-1.99255 3.98511,-1.99255 1.45445,0 2.71658,0.99627 3.98511,1.99255 1.2685,0.99628 2.53063,1.99255 3.9851,1.99255 1.45446,0 2.71659,-0.99627 3.98511,-1.99255 1.26851,-0.99628 2.53064,-1.99255 3.98511,-1.99255 1.45445,0 2.71658,0.99627 3.9851,1.99255 1.26851,0.99628 2.53064,1.99255 3.98511,1.99255 1.45445,0 2.71659,-0.99627 3.98511,-1.99255 1.26851,-0.99628 2.53064,-1.99255 3.98511,-1.99255 1.45445,0 2.71658,0.99627 3.9851,1.99255 1.26851,0.99628 2.53065,1.99255 3.98511,1.99255 1.45445,0 2.71659,-0.99627 3.98511,-1.99255 1.26851,-0.99628 2.53064,-1.99255 3.98511,-1.99255 1.45445,0 2.71658,0.99627 3.9851,1.99255 1.26852,0.99628 2.53064,1.99255 3.98511,1.99255 1.45445,0 2.71658,-0.99627 3.98511,-1.99255 1.26851,-0.99628 2.53064,-1.99255 3.9851,-1.99255 1.45446,0 2.71659,0.99627 3.98511,1.99255 1.26851,0.99628 2.53064,1.99255 3.98511,1.99255 1.45445,0 2.71658,-0.99627 3.98511,-1.99255 1.26851,-0.99628 2.53064,-1.99255 3.98511,-1.99255 1.45445,0 2.71658,0.99627 3.9851,1.99255 1.26851,0.99628 2.53064,1.99255 3.98511,1.99255 1.45445,0 2.71658,-0.99627 3.98511,-1.99255 1.26851,-0.99628 2.53064,-1.99255 3.98511,-1.99255 1.45445,0 2.71658,0.99627 3.9851,1.99255 1.26851,0.99628 2.53064,1.99255 3.98511,1.99255 1.45445,0 2.71658,-0.99627 3.98511,-1.99255 1.26851,-0.99628 2.53064,-1.99255 3.98511,-1.99255 1.45445,0 2.71658,0.99627 3.9851,1.99255 1.26851,0.99628 2.53064,1.99255 3.98511,1.99255 1.45445,0 2.71659,-0.99627 3.98511,-1.99255 1.26851,-0.99628 2.53064,-1.99255 3.98511,-1.99255 1.45445,0 2.71658,0.99627 3.9851,1.99255 1.26851,0.99628 2.53064,1.99255 3.98511,1.99255 1.45446,0 2.71658,-0.99627 3.98511,-1.99255 1.26851,-0.99628 2.53064,-1.99255 3.9851,-1.99255 1.45445,0 2.71659,0.99627 3.98511,1.99255 1.26851,0.99628 2.53064,1.99255 3.98511,1.99255 1.45445,0 2.71658,-0.99627 3.98511,-1.99255 1.26851,-0.99628 2.53064,-1.99255 3.9851,-1.99255 1.45446,0 2.71659,0.99627 3.98511,1.99255 1.26851,0.99628 2.53064,1.99255 3.98511,1.99255 1.45445,0 2.71658,-0.99627 3.9851,-1.99255 1.26852,-0.99628 2.53065,-1.99255 3.98511,-1.99255 1.45446,0 2.71659,0.99627 3.98511,1.99255 1.26851,0.99628 2.53064,1.99255 3.98511,1.99255 1.45445,0 2.71658,-0.99627 3.98511,-1.99255 1.26851,-0.99628 2.53064,-1.99255 3.9851,-1.99255 1.45446,0 2.71659,0.99627 3.98511,1.99255 1.26851,0.99628 2.53064,1.99255 3.98511,1.99255 1.45445,0 2.71658,-0.99627 3.98511,-1.99255 1.26851,-0.99628 2.53063,-1.99255 3.9851,-1.99255 1.45446,0 2.71659,0.99627 3.98511,1.99255 1.26849,0.99628 2.53062,1.99255 3.98509,1.99255 1.45446,0 2.71659,-0.99627 3.98511,-1.99255 1.26851,-0.99628 2.53064,-1.99255 3.98511,-1.99255 1.45445,0 2.71658,0.99627 3.98511,1.99255 1.2685,0.99628 2.53064,1.99255 3.9851,1.99255 1.45446,0 2.71659,-0.99627 3.98511,-1.99255 1.26851,-0.99628 2.53064,-1.99255 3.98511,-1.99255 1.45445,0 2.71658,0.99627 3.98511,1.99255 1.2685,0.99628 2.53063,1.99255 3.9851,1.99255 1.45446,0 2.71659,-0.99627 3.98511,-1.99255 1.26851,-0.99628 2.53064,-1.99255 3.98511,-1.99255 1.45445,0 2.71658,0.99627 3.9851,1.99255 1.26851,0.99628 2.53065,1.99255 3.98511,1.99255 1.45445,0 2.71659,-0.99627 3.98511,-1.99255 1.26851,-0.99628 2.53064,-1.99255 3.98511,-1.99255 1.45445,0 2.71658,0.99627 3.9851,1.99255 1.26852,0.99628 2.53064,1.99255 3.98511,1.99255 1.45445,0 2.71659,-0.99627 3.98511,-1.99255 1.26851,-0.99628 2.53064,-1.99255 3.9851,-1.99255 1.45446,0 2.71659,0.99627 3.98511,1.99255 1.26851,0.99628 2.53064,1.99255 3.98511,1.99255 1.45445,0 2.71658,-0.99627 3.98511,-1.99255 1.26851,-0.99628 2.53064,-1.99255 3.98511,-1.99255 1.45445,0 2.71658,0.99627 3.9851,1.99255 1.26851,0.99628 2.53064,1.99255 3.98511,1.99255 1.45445,0 2.71658,-0.99627 3.98511,-1.99255 1.26851,-0.99628 2.53064,-1.99255 3.98511,-1.99255 1.45445,0 2.71658,0.99627 3.9851,1.99255 1.26851,0.99628 2.53064,1.99255 3.98511,1.99255 1.45445,0 2.71658,-0.99627 3.98511,-1.99255 1.26851,-0.99628 2.53064,-1.99255 3.98511,-1.99255 1.45445,0 2.71658,0.99627 3.9851,1.99255 1.26851,0.99628 2.53064,1.99255 3.98511,1.99255 1.45445,0 2.71659,-0.99627 3.98511,-1.99255 1.26851,-0.99628 2.53064,-1.99255 3.98511,-1.99255 1.45445,0 2.71658,0.99627 3.9851,1.99255 1.26851,0.99628 2.53064,1.99255 3.98511,1.99255 1.45446,0 2.71658,-0.99627 3.98511,-1.99255 1.26851,-0.99628 2.53064,-1.99255 3.98511,-1.99255 1.45445,0 2.71658,0.99627 3.9851,1.99255 1.26851,0.99628 2.53064,1.99255 3.98511,1.99255 1.45445,0 2.71658,-0.99627 3.98511,-1.99255 1.26851,-0.99628 2.53064,-1.99255 3.9851,-1.99255 1.45446,0 2.71659,0.99627 3.98511,1.99255 1.26851,0.99628 2.53064,1.99255 3.98511,1.99255 1.45445,0 2.71658,-0.99627 3.9851,-1.99255 1.26852,-0.99628 2.53065,-1.99255 3.98511,-1.99255 1.45446,0 2.71659,0.99627 3.98511,1.99255 1.26851,0.99628 2.53064,1.99255 3.98511,1.99255 1.45445,0 2.71658,-0.99627 3.98511,-1.99255 1.26851,-0.99628 2.53064,-1.99255 3.9851,-1.99255 1.45446,0 2.71659,0.99627 3.98511,1.99255 1.26851,0.99628 2.53064,1.99255 3.98511,1.99255 1.45445,0 2.71658,-0.99627 3.98511,-1.99255 1.26851,-0.99628 2.53063,-1.99255 3.9851,-1.99255 1.99256,0 2.98883,1.99255 4.98139,1.99255 h 1.53645" /></g><g
               id="g208"><path
                 id="path210"
                 style="fill:#ffffff;fill-opacity:0.75;fill-rule:nonzero;stroke:#000000;stroke-width:0.3985;stroke-linecap:butt;stroke-linejoin:miter;stroke-miterlimit:10;stroke-dasharray:none;stroke-opacity:1"
                 d="m -138.54427,3.26004 h 48.89798 v 216.78088 h -48.89798 z" /></g><g
               id="g212"><g
                 id="g214"><g
                   transform="scale(-1)"
                   id="g216"><g
                     id="g218" /><g
                     transform="rotate(180,77.386,-81.9095)"
                     id="g220"><g
                       id="g222" /><g
                       transform="translate(-130.182,10.578)"
                       id="g224"><text
                         id="text228"
                         style="font-variant:normal;font-weight:normal;font-size:10.90909958px;font-family:'Noto Sans';-inkscape-font-specification:NotoSans;writing-mode:lr-tb;fill:#000000;fill-opacity:1;fill-rule:nonzero;stroke:none"
                         transform="matrix(1,0,0,-1,154.772,-163.819)"><tspan
                           id="tspan226"
                           y="0"
                           x="0 9.8945541 16.494558 23.203655 29.356388">Model</tspan></text>
</g><g
                       transform="translate(154.772,-163.819)"
                       id="g230" /></g></g></g></g><g
               id="g232"><g
                 id="g234"><g
                   transform="scale(-1)"
                   id="g236"><g
                     id="g238" /><g
                     transform="rotate(180,77.386,-81.9095)"
                     id="g240"><g
                       id="g242" /><g
                       transform="translate(-130.182,43.177)"
                       id="g244"><text
                         id="text248"
                         style="font-variant:normal;font-weight:normal;font-size:10.90909958px;font-family:'Noto Sans';-inkscape-font-specification:NotoSans;writing-mode:lr-tb;fill:#000000;fill-opacity:1;fill-rule:nonzero;stroke:none"
                         transform="matrix(1,0,0,-1,154.772,-163.819)"><tspan
                           id="tspan246"
                           y="0"
                           x="0 9.8945541 16.494558 23.203655 29.356388">Model</tspan></text>
</g><g
                       transform="translate(154.772,-163.819)"
                       id="g250" /></g></g></g></g><g
               id="g252"><g
                 id="g254"><g
                   transform="scale(-1)"
                   id="g256"><g
                     id="g258" /><g
                     transform="rotate(180,77.386,-81.9095)"
                     id="g260"><g
                       id="g262" /><g
                       transform="translate(-126.166,206.421)"
                       id="g264"><text
                         id="text268"
                         style="font-variant:normal;font-weight:normal;font-size:10.90909958px;font-family:'Noto Sans';-inkscape-font-specification:NotoSans;writing-mode:lr-tb;fill:#000000;fill-opacity:1;fill-rule:nonzero;stroke:none"
                         transform="matrix(1,0,0,-1,154.772,-163.819)"><tspan
                           id="tspan266"
                           y="0"
                           x="0 7.9636431 14.083648 18.021833">Data</tspan></text>
</g><g
                       transform="translate(154.772,-163.819)"
                       id="g270" /></g></g></g></g><g
               id="g272"><path
                 id="path274"
                 style="fill:none;stroke:#000000;stroke-width:1.59404004;stroke-linecap:butt;stroke-linejoin:miter;stroke-miterlimit:10;stroke-dasharray:2.98883, 2.98883;stroke-dashoffset:0;stroke-opacity:1"
                 d="M -114.09528,54.54709 V 201.35252" /><g
                 transform="rotate(-90,-29.774095,84.321185)"
                 id="g276"><g
                   id="g278"><path
                     id="path280"
                     style="fill:none;stroke:#000000;stroke-width:1.59404004;stroke-linecap:round;stroke-linejoin:miter;stroke-miterlimit:10;stroke-dasharray:none;stroke-opacity:1"
                     d="M -6.0708,2.72491 0.34868,0 -6.0708,-2.72491" /></g></g><g
                 transform="rotate(90,-157.7239,43.62862)"
                 id="g282"><g
                   id="g284"><path
                     id="path286"
                     style="fill:none;stroke:#000000;stroke-width:1.59404004;stroke-linecap:round;stroke-linejoin:miter;stroke-miterlimit:10;stroke-dasharray:none;stroke-opacity:1"
                     d="M -6.0708,2.72491 0.34868,0 -6.0708,-2.72491" /></g></g></g></g></g></g></g></g></svg>