<svg xmlns="http://www.w3.org/2000/svg" width="10.474019mm" height="9.6584826mm" viewBox="0 0 37.112666 34.22297" fill="currentColor">
  <g
     id="layer1"
     transform="translate(-356.44366,-515.25072)">
    <path
       d="M 10.433594 0 C 5.1075938 0 4.8066406 0.32120313 4.8066406 6.0332031 L 4.8066406 18.099609 C 4.8066406 23.811609 5.1075937 24.132812 10.433594 24.132812 L 26.660156 24.132812 C 31.986156 24.132812 32.285156 23.811609 32.285156 18.099609 L 32.285156 6.0332031 C 32.285156 0.32120313 31.986156 0 26.660156 0 L 10.433594 0 z M 12.429688 3.0351562 L 24.822266 3.0351562 C 28.833266 3.0351562 29.058594 3.2548125 29.058594 7.1328125 L 29.058594 15.326172 C 29.058594 19.205172 28.833266 19.423828 24.822266 19.423828 L 12.429688 19.423828 C 8.4186875 19.423828 8.1933594 19.205172 8.1933594 15.326172 L 8.1933594 7.1328125 C 8.1933594 3.2548125 8.4186875 3.0351562 12.429688 3.0351562 z "
       transform="translate(356.44366,515.25072)"
       id="path3624" />
    <path
       d="M 5.0605469 24.837891 C 2.5681094 24.874406 2.8154219 25.222719 1.9199219 27.417969 L 0.0078125 32.554688 C -0.0721875 34.406688 0.36326562 34.167969 6.6972656 34.167969 L 30.591797 34.167969 C 36.925797 34.167969 37.113281 34.656609 37.113281 32.724609 L 35.371094 27.417969 C 33.938094 24.848969 35.015641 24.849609 28.681641 24.849609 L 8.609375 24.849609 C 7.025875 24.849609 5.8913594 24.825719 5.0605469 24.837891 z M 2.7167969 31.458984 L 34.755859 31.458984 A 0.50005 0.50005 0 1 1 34.755859 32.458984 L 2.7167969 32.458984 A 0.50005 0.50005 0 1 1 2.7167969 31.458984 z "
       transform="translate(356.44366,515.25072)"
       id="path3634" />
  </g>
</svg>
