<svg xmlns="http://www.w3.org/2000/svg" width="9.5012932mm" height="9.5012932mm" viewBox="0 0 33.665999 33.665999" fill="currentColor">
  <g transform="translate(-163.167,-361.24348)">
    <path
       d="M 16.832031 0 A 16.833 16.833 0 0 0 0 16.832031 A 16.833 16.833 0 0 0 16.832031 33.666016 A 16.833 16.833 0 0 0 33.666016 16.832031 A 16.833 16.833 0 0 0 16.832031 0 z M 17.121094 4.3613281 C 18.800094 4.3613281 19.919922 5.6011719 19.919922 7.2011719 C 19.919922 9.1211719 18.440922 10.119141 16.919922 10.119141 C 15.159922 10.119141 14.121094 8.92025 14.121094 7.28125 C 14.121094 5.52125 15.520094 4.3613281 17.121094 4.3613281 z M 18.998047 12.798828 C 19.318047 12.798828 19.55875 12.918203 19.71875 13.158203 C 19.63875 14.358203 19.599609 16.117969 19.599609 17.917969 L 19.599609 25.277344 C 19.599609 28.076344 19.759125 28.436641 21.078125 28.556641 L 21.839844 28.636719 C 22.159844 28.876719 22.158828 29.797109 21.798828 30.037109 C 20.398828 29.957109 18.84 29.917969 17 29.917969 C 15.2 29.917969 13.521172 29.957109 12.201172 30.037109 C 11.841172 29.797109 11.840156 28.876719 12.160156 28.636719 L 12.921875 28.556641 C 14.241875 28.436641 14.400391 28.076344 14.400391 25.277344 L 14.400391 19.238281 C 14.400391 17.638281 14.400625 17.159688 13.640625 16.679688 L 13.080078 16.318359 C 12.800078 16.078359 12.800078 15.359141 13.080078 15.119141 C 14.960078 14.599141 17.798047 13.518828 18.998047 12.798828 z "
       transform="translate(163.167,361.24348)"
       id="circle3694" />
    <g
       transform="translate(-385.36999,22.19649)"
       id="g3696" />
  </g>
</svg>
