<svg xmlns="http://www.w3.org/2000/svg" width="90" height="90" fill="currentColor" viewBox="0 0 90 90">
  <path
      d="m 63.239859,22.836241 c 1.72,1.37 3.265,2.921 4.609,4.613 0.818,1.031 13.936,-5.288 14.604,-4.165 0.618,1.027 -11.201,9.496 -10.718,10.593 0.799,1.804 1.421,3.688 1.846,5.624 l 0.323,4.961 c 0.061,1.878 -0.054,3.745 -0.337,5.579 -0.122,0.803 6.695,7.536 10.166,5.023 3.522,-2.545 7.621,1.106 5.834,5.254 -1.2,2.779 -5.641,4.074 -7.706,-0.15 -1.894,-3.867 -10.035,-3.687 -10.376,-2.891 -0.872,2.023 -1.965,3.948 -3.266,5.728 l -0.605,0.741 c -1.338,1.752 -2.856,3.336 -4.514,4.711 -1.009,0.835 5.23,14.193 4.128,14.881 -1.006,0.626 -9.348,-11.397 -10.421,-10.898 -1.769,0.819 -3.616,1.458 -5.511,1.899 l -5.734,0.887 c -1.841,-0.107 -5.758,-0.719 -7.522,-1.17 -0.771,-0.198 -7.973,6.106 -5.836,9.863 2.166,3.812 -1.774,7.633 -5.665,5.44 -2.602,-1.469 -3.464,-6.1 0.853,-7.812 3.951,-1.563 4.516,-9.848 3.766,-10.267 -1.893,-1.067 -3.673,-2.355 -5.294,-3.836 l -0.166,-0.392 c -1.62,-1.49 -3.053,-3.154 -4.278,-4.934 -0.746,-1.088 -14.2659998,4.275 -14.8579998,3.104 -0.544,-1.072 11.8319998,-8.665 11.4249998,-9.798 -0.67,-1.854 -1.158,-3.779 -1.454,-5.736 l -0.281,-2.82 c -0.085,-1.877 0.009,-3.748 0.271,-5.583 0.115,-0.801 -6.7779998,-7.455 -10.2209998,-4.906 -3.497,2.59 -7.631,-1.014 -5.89100004,-5.184 1.16800004,-2.794 5.59600004,-4.14 7.70800004,0.061 1.9339998,3.847 10.0719998,3.571 10.4069998,2.767 0.851,-2.029 1.922,-3.966 3.2,-5.761 l 0.596,-0.747 c 1.321,-1.773 2.821,-3.369 4.463,-4.766 0.998,-0.848 -5.386,-14.1280001 -4.294,-14.8290001 1,-0.641 9.475,11.2840001 10.542,10.7760001 1.758,-0.84 4.96,-1.712 6.852,-2.177 l 4.456,-0.151 c 1.844,-0.058 3.673,0.064 5.471,0.357 0.788,0.131 7.409,-6.8020001 4.961,-10.3480001 -2.489,-3.6 1.103,-7.763 5.167,-5.93000001 2.724,1.23000001 3.98,5.76400001 -0.167,7.85400001 -3.803,1.9170001 -3.645,10.2170001 -2.861,10.5730001 1.979,0.892 3.862,2.013 5.606,3.337 l 0.722,0.625 z"/>
</svg>
