<svg xmlns="http://www.w3.org/2000/svg" width="90.830833" height="90.829361" viewBox="0 0 90.830834 90.829361"  fill="currentColor">
  <path
     d="M 49.15625 0 C 37.650933 -0.19667508 24.769594 6.5895313 19.28125 19.6875 C 8.9482511 44.3375 18.7715 89.9985 49.4375 90.8125 C 66.1915 91.2615 77.83175 77.29625 72.21875 58.78125 C 70.539157 53.241719 67.461058 51.324297 64.5 50.3125 C 60.875655 51.419771 57.104104 53.627042 54.28125 58 C 54.220185 58.096615 54.153937 58.182547 54.09375 58.28125 C 53.899357 58.593107 53.715907 58.916464 53.53125 59.25 C 53.30074 59.674461 53.089301 60.102182 52.875 60.5625 C 52.788524 60.744721 52.708631 60.936904 52.625 61.125 C 52.545092 61.307973 52.483526 61.498974 52.40625 61.6875 C 52.327204 61.87729 52.232394 62.054409 52.15625 62.25 C 52.042667 62.545557 51.919561 62.847387 51.8125 63.15625 C 51.749934 63.334885 51.685188 63.504276 51.625 63.6875 C 51.44447 64.240978 51.283911 64.810364 51.125 65.40625 C 51.032813 65.751687 50.871722 66.045546 50.65625 66.28125 C 50.440756 66.516979 50.160649 66.70723 49.84375 66.84375 C 49.692744 66.90709 49.513692 66.957061 49.34375 67 C 48.984411 67.090794 48.584127 67.148936 48.15625 67.15625 C 47.506045 67.167364 46.807265 67.088608 46.0625 66.9375 C 45.572797 66.839378 45.097251 66.71784 44.59375 66.5625 C 44.077171 66.402992 43.570239 66.208564 43.0625 66 C 42.576015 65.801575 42.113988 65.577196 41.65625 65.34375 C 41.647999 65.339523 41.633238 65.347987 41.625 65.34375 C 41.159609 65.105469 40.725983 64.857755 40.3125 64.59375 C 39.891745 64.324932 39.500344 64.065738 39.15625 63.78125 C 38.992465 63.646609 38.8616 63.480122 38.71875 63.34375 C 38.713087 63.338308 38.693127 63.349194 38.6875 63.34375 C 38.545887 63.207737 38.430773 63.074022 38.3125 62.9375 C 38.184765 62.790056 38.066309 62.646623 37.96875 62.5 C 37.780858 62.217615 37.653078 61.927615 37.59375 61.65625 C 37.564118 61.52053 37.555888 61.412243 37.5625 61.28125 C 37.575668 61.019331 37.669165 60.766402 37.84375 60.53125 C 37.927094 60.418995 38.032456 60.291886 38.15625 60.1875 C 38.288003 60.078584 38.446048 59.973944 38.625 59.875 C 38.982926 59.677087 39.436875 59.493875 40 59.34375 C 41.152655 59.036458 42.187853 58.705825 43.09375 58.375 C 43.550303 58.207865 44.00762 58.049377 44.40625 57.875 C 47.591027 56.47998 48.95791 54.846207 49.34375 52.75 C 49.44021 52.225948 49.483493 51.64688 49.46875 51.0625 C 49.446635 50.18593 49.325625 49.249625 49.125 48.21875 C 49.103688 48.109156 49.069226 48.00588 49.03125 47.90625 C 48.841372 47.408101 48.452798 47.045971 47.90625 46.78125 C 47.695617 46.67923 47.440835 46.570037 47.1875 46.5 C 47.178329 46.497535 47.165472 46.502425 47.15625 46.5 C 45.040219 45.928281 41.556031 46.443719 38.34375 47.59375 C 37.539719 47.881738 36.775594 48.20053 36.03125 48.5625 C 35.287467 48.924189 34.570875 49.3275 33.9375 49.75 C 33.60575 49.971125 33.305447 50.13369 33 50.28125 C 32.988315 50.286979 32.980398 50.306875 32.96875 50.3125 C 32.786489 50.399041 32.610541 50.438353 32.4375 50.5 C 32.323395 50.54145 32.203923 50.593959 32.09375 50.625 C 31.825178 50.698646 31.558012 50.766572 31.3125 50.78125 C 30.813456 50.81085 30.345266 50.717771 29.9375 50.53125 C 29.929699 50.527588 29.914018 50.534984 29.90625 50.53125 C 29.698894 50.433741 29.528356 50.302666 29.34375 50.15625 C 28.980421 49.868457 28.622988 49.480041 28.34375 49.03125 C 28.339042 49.023603 28.348434 49.007687 28.34375 49 C 28.061363 48.541711 27.826302 48.022176 27.625 47.4375 C 27.322917 46.559579 27.104375 45.551312 26.96875 44.5 C 26.923591 44.149902 26.903081 43.796977 26.875 43.4375 C 26.762474 41.998209 26.773916 40.516854 26.90625 39.125 C 26.972517 38.429765 27.068534 37.749127 27.1875 37.125 C 27.304282 36.51119 27.462778 35.944837 27.625 35.4375 C 27.628219 35.427541 27.621764 35.416159 27.625 35.40625 C 27.704733 35.159158 27.785374 34.933523 27.875 34.71875 C 27.878747 34.709882 27.871236 34.696308 27.875 34.6875 C 27.968644 34.465514 28.083872 34.275721 28.1875 34.09375 C 28.291166 33.912043 28.387062 33.761774 28.5 33.625 C 28.617558 33.479605 28.716822 33.372284 28.84375 33.28125 C 29.086687 33.107012 29.352055 33.038763 29.625 33.09375 C 29.902524 33.14966 30.197368 33.322157 30.5 33.65625 C 30.797302 33.980148 31.090313 34.4305 31.40625 35.0625 C 31.578375 35.406625 32.044268 35.83733 32.6875 36.28125 C 33.32704 36.719806 34.175388 37.207086 35.125 37.6875 C 35.607277 37.931059 36.121727 38.162504 36.65625 38.40625 C 37.191223 38.650714 37.743963 38.887358 38.3125 39.125 C 39.449573 39.600284 40.622359 40.063359 41.78125 40.46875 C 42.939094 40.872469 44.095189 41.222877 45.125 41.5 C 46.927168 41.984965 48.408169 42.234813 49.1875 42.09375 C 49.410166 42.053446 49.559208 41.982326 49.65625 41.875 C 49.747227 41.774382 49.785377 41.634298 49.75 41.46875 C 49.747964 41.460934 49.752323 41.44546 49.75 41.4375 C 49.726347 41.346788 49.68825 41.266812 49.625 41.15625 C 49.200692 40.413921 48.803433 39.496828 48.375 38.5625 C 48.29186 38.381676 48.212525 38.21588 48.125 38.03125 C 47.593071 36.904908 46.964479 35.720981 46.09375 34.59375 C 46.084945 34.582449 46.071355 34.573789 46.0625 34.5625 C 46.030772 34.521708 46.001136 34.478123 45.96875 34.4375 C 45.78245 34.20569 45.584469 33.974917 45.375 33.75 C 45.119412 33.475562 44.825814 33.19808 44.53125 32.9375 C 43.352994 31.89518 41.842678 30.975008 39.84375 30.3125 C 38.844286 29.981246 37.7325 29.720125 36.46875 29.53125 C 36.131368 29.480639 35.839658 29.416552 35.5625 29.34375 C 35.024187 29.204862 34.612622 29.023155 34.28125 28.8125 C 34.106949 28.701695 33.965632 28.596348 33.84375 28.46875 C 33.61455 28.235379 33.473369 27.967935 33.40625 27.6875 C 33.404129 27.67784 33.408194 27.665957 33.40625 27.65625 C 33.279322 27.080998 33.492163 26.436146 33.90625 25.75 C 33.910656 25.742794 33.901795 25.725961 33.90625 25.71875 C 34.007904 25.552263 34.123132 25.387586 34.25 25.21875 C 34.254685 25.21257 34.245284 25.193682 34.25 25.1875 C 34.917174 24.306463 35.925391 23.433008 37.0625 22.625 C 37.972187 21.978594 38.964363 21.375369 39.96875 20.90625 C 40.470943 20.67169 40.977225 20.48098 41.46875 20.3125 C 41.960275 20.14402 42.448289 19.994145 42.90625 19.90625 C 44.051152 19.686514 45.034042 19.744926 45.71875 20.1875 C 45.726328 20.192251 45.742499 20.182656 45.75 20.1875 C 45.879008 20.273114 45.989209 20.385477 46.09375 20.5 C 46.162368 20.573182 46.223708 20.664176 46.28125 20.75 C 46.32172 20.810361 46.371541 20.870708 46.40625 20.9375 C 46.480598 21.085346 46.548853 21.257675 46.59375 21.4375 C 46.70875 21.897125 46.852156 22.36579 47 22.8125 C 47.293498 23.692674 47.627159 24.552768 48.03125 25.375 C 48.037241 25.387264 48.056487 25.393999 48.0625 25.40625 C 49.084743 27.476175 50.408118 29.349782 51.875 30.9375 C 51.880376 30.943338 51.869621 30.96292 51.875 30.96875 C 53.346524 32.558552 54.982527 33.870999 56.53125 34.8125 C 57.152881 35.190403 57.751326 35.494976 58.34375 35.75 C 58.639962 35.877512 58.934313 35.998938 59.21875 36.09375 C 60.056134 36.372914 60.791509 36.603322 61.46875 36.78125 C 62.076801 36.941 62.639873 37.056731 63.15625 37.15625 C 67.382116 32.487394 71.995578 25.753062 70.46875 17.25 C 68.407188 5.7712501 59.308 0.17353684 49.15625 0 z M 63.15625 37.15625 C 63.145765 37.167834 63.13548 37.175941 63.125 37.1875 C 67.328482 38.129003 69.044972 37.419923 78.28125 38.625 C 80.027595 38.853269 82.199092 39.128162 84.40625 39.53125 C 82.547386 38.862334 80.526715 38.398087 78.4375 38.125 C 69.177025 36.916766 67.427465 37.979419 63.15625 37.15625 z M 64.5 50.3125 C 67.611865 49.361796 70.624146 49.21875 72.875 49.21875 C 74.05838 49.21875 74.980718 49.322186 75.78125 49.4375 C 74.871271 49.21766 73.79487 49.0625 72.53125 49.0625 C 70.273595 49.0625 67.282288 49.231101 64.21875 50.21875 C 64.314618 50.249731 64.40383 50.279639 64.5 50.3125 z "
     id="path3" /><path
     d="m 80.422832,50.520832 c 0,0 -0.521,-1.898 -6.631,-1.898 -6.064,0 -17.693,1.01 -21.737,16.178"
     id="path7"/><path
     d="m 47.501832,22.042832 c 1.839,7.354 8.089,13.141 12.64,14.658 7.809,2.603 7.586,0.504 19.212,2.021 5.165,0.674 8.318,2.148 10.977,5.531"
     id="path9"/>
</svg>
