<svg xmlns="http://www.w3.org/2000/svg" width="8.2473927mm" height="9.677556mm" viewBox="0 0 29.223045 34.290553" fill="currentColor">
  <g transform="translate(-360.38848,-515.21693)">
    <path
       d="m 375.80078,515.2168 c -0.74347,0 -1.26637,0.003 -1.72656,0.15625 -0.46019,0.15275 -0.81543,0.57696 -0.91797,1.05468 -0.20508,0.95545 0.0391,2.27811 0.0391,4.91602 l 0,11.25781 c 0,2.63791 -0.24411,3.96041 -0.0391,4.91602 0.10253,0.4778 0.45774,0.90375 0.91797,1.05664 0.46022,0.15289 0.98306,0.1543 1.72656,0.1543 l 11.08399,0 c 0.74347,0 1.2664,-0.001 1.72656,-0.1543 0.46016,-0.15281 0.8156,-0.5789 0.91797,-1.05664 0.20473,-0.95549 -0.0391,-2.27763 -0.0391,-4.91602 l 0,-11.25781 c 0,-2.63785 0.24366,-3.96059 0.0391,-4.91602 -0.1023,-0.47771 -0.45582,-0.90191 -0.91602,-1.05468 -0.46019,-0.15278 -0.98479,-0.15625 -1.72851,-0.15625 l -11.08399,0 z m 0,1 11.08399,0 c 0.72677,0 1.20189,0.0357 1.41211,0.10547 0.21021,0.0698 0.19953,0.0514 0.25585,0.31445 0.11266,0.52608 -0.0625,2.01688 -0.0625,4.70703 l 0,11.25781 c 0,2.69062 0.17332,4.18077 0.0605,4.70703 -0.0564,0.26313 -0.0437,0.24662 -0.2539,0.31641 -0.21016,0.0698 -0.68559,0.10352 -1.41211,0.10352 l -11.08399,0 c -0.7265,0 -1.20183,-0.0337 -1.41211,-0.10352 -0.21027,-0.0699 -0.19743,-0.0532 -0.2539,-0.31641 -0.11295,-0.52638 0.0605,-2.01694 0.0605,-4.70703 l 0,-11.25781 c 0,-2.69009 -0.17346,-4.18098 -0.0605,-4.70703 0.0564,-0.26303 0.0436,-0.24465 0.2539,-0.31445 0.21031,-0.0698 0.68559,-0.10547 1.41211,-0.10547 z"
       id="path3628" />
    <path
       d="m 363.03748,529.07993 c 0.028,0.552 0,7.125 0,7.125 0,2.249 -2.649,2.249 -2.649,0 0,0 0.005,-8.174 0.005,-8.293 -0.012,-2.197 0.214,-2.103 1.702,-2.332 1.488,-0.229 3.546,-0.542 3.546,-0.542 l 3.816,0 c 0.313,0 2.186,0.584 4.311,-0.249 0.764,-0.3 5.627,-2.001 5.627,-2.001 2.126,-0.732 2.989,1.771 0.864,2.505 0,0 -3.248,1.116 -5.952,2.076 -2.704,0.96 -3.163,0.919 -3.131,1.544 -0.016,0.251 0.044,18.992 0.044,18.992 -0.019,2.3 -3.089,1.967 -3.137,0 l 0,-9.2 -1.438,0.004 0,9.196 c -0.018,2.3 -3.083,1.967 -3.131,0 0,0 -10e-4,-18.273 0.003,-18.804 0.002,-0.469 -0.498,-0.375 -0.48,-0.021 z"
       id="path3632" />
    <circle
       cx="367.39447"
       cy="520.2879"
       r="4.5"
       id="circle3692" />
  </g>
</svg>
